<?xml version="1.0" encoding="UTF-8" standalone="no"?>
<svg
   version="1.1"
   id="svg2"
   xml:space="preserve"
   width="707.96002"
   height="666.65332"
   viewBox="0 0 707.96002 666.65332"
   sodipodi:docname="GitHub-Mark (copy).svg"
   inkscape:version="1.1 (ce6663b3b7, 2021-05-25)"
   xmlns:inkscape="http://www.inkscape.org/namespaces/inkscape"
   xmlns:sodipodi="http://sodipodi.sourceforge.net/DTD/sodipodi-0.dtd"
   xmlns="http://www.w3.org/2000/svg"
   xmlns:svg="http://www.w3.org/2000/svg"
   xmlns:rdf="http://www.w3.org/1999/02/22-rdf-syntax-ns#"
   xmlns:cc="http://creativecommons.org/ns#"
   xmlns:dc="http://purl.org/dc/elements/1.1/"><metadata
     id="metadata8"><rdf:RDF><cc:Work
         rdf:about=""><dc:format>image/svg+xml</dc:format><dc:type
           rdf:resource="http://purl.org/dc/dcmitype/StillImage" /></cc:Work></rdf:RDF></metadata><defs
     id="defs6" /><sodipodi:namedview
     pagecolor="#ffffff"
     bordercolor="#666666"
     borderopacity="1"
     objecttolerance="10"
     gridtolerance="10"
     guidetolerance="10"
     inkscape:pageopacity="0"
     inkscape:pageshadow="2"
     inkscape:window-width="1920"
     inkscape:window-height="964"
     id="namedview4"
     inkscape:pagecheckerboard="0"
     showgrid="false"
     inkscape:zoom="0.59401189"
     inkscape:cx="298.81557"
     inkscape:cy="440.22688"
     inkscape:window-x="0"
     inkscape:window-y="27"
     inkscape:window-maximized="1"
     inkscape:current-layer="g12" /><g
     id="g10"
     inkscape:groupmode="layer"
     inkscape:label="ink_ext_XXXXXX"
     transform="matrix(1.3333333,0,0,-1.3333333,0,666.65333)"><g
       id="g12"
       transform="scale(0.1)"><path
         d="m 2654.6189,4951.0039 c -1387.5607,0 -2512.8519,-1125.1367 -2512.8519,-2513.1603 0,-1110.1719 720.0073,-2052.18279 1718.6376,-2384.648157 125.7352,-22.987171 171.5552,54.613777 171.5552,121.261127 0,59.70491 -2.1598,217.68384 -3.3941,427.34525 C 1329.54,449.99395 1182.0519,938.74114 1182.0519,938.74114 1067.7332,1229.0892 902.96611,1306.3816 902.96611,1306.3816 c -228.1746,155.8191 17.2789,152.7334 17.2789,152.7334 252.24179,-17.7417 384.91939,-259.0297 384.91939,-259.0297 224.1634,-383.9938 588.2553,-273.0692 731.4236,-208.73579 22.833,162.29849 87.7832,273.06889 159.5217,335.85929 -558.0171,63.5618 -1144.7298,279.0858 -1144.7298,1242.0783 0,274.4573 97.9654,498.6207 258.7213,674.3415 -25.9185,63.5618 -112.1588,319.0433 24.6841,665.0849 0,0 210.8957,67.573 691.0034,-257.4871 200.405,55.6937 415.4661,83.4635 629.1387,84.5434 213.5182,-1.0799 428.4252,-28.8497 629.1386,-84.5434 479.7991,325.0601 690.3862,257.4871 690.3862,257.4871 137.1516,-346.0416 50.9111,-601.5231 25.147,-665.0849 161.0645,-175.7208 258.2585,-399.8842 258.2585,-674.3415 0,-965.4608 -587.6383,-1177.8994 -1147.3525,-1240.0727 90.0973,-77.6009 170.4752,-230.9515 170.4752,-465.4515 0,-335.85946 -3.0855,-606.9228 -3.0855,-689.30633 0,-67.26445 45.3572,-145.482485 172.7895,-120.952548 C 4448.5432,386.58641 5167.9333,1327.826 5167.9333,2437.8436 c 0,1388.0236 -1125.2911,2513.1603 -2513.3144,2513.1603"
         style="fill:#1b1817;fill-opacity:1;fill-rule:evenodd;stroke:none;stroke-width:15.4277"
         id="path16" /><path
         d="m 2248.98,4994.88 v -5"
         style="fill:none;stroke:#3a7fc3;stroke-width:10;stroke-linecap:round;stroke-linejoin:miter;stroke-miterlimit:10;stroke-dasharray:none;stroke-opacity:1"
         id="path34" /></g></g></svg>
